<mxfile host="Electron" modified="2023-08-18T02:16:55.906Z" agent="Mozilla/5.0 (Windows NT 10.0; Win64; x64) AppleWebKit/537.36 (KHTML, like Gecko) draw.io/21.6.8 Chrome/114.0.5735.289 Electron/25.5.0 Safari/537.36" etag="WG4zbzDszydYGeU8phcT" version="21.6.8" type="device">
  <diagram id="R2lEEEUBdFMjLlhIrx00" name="Page-1">
    <mxGraphModel dx="931" dy="1744" grid="1" gridSize="10" guides="1" tooltips="1" connect="1" arrows="1" fold="1" page="1" pageScale="1" pageWidth="850" pageHeight="1100" math="0" shadow="0" extFonts="Permanent Marker^https://fonts.googleapis.com/css?family=Permanent+Marker">
      <root>
        <mxCell id="0" />
        <mxCell id="1" parent="0" />
        <mxCell id="C-vyLk0tnHw3VtMMgP7b-23" value="products" style="shape=table;startSize=30;container=1;collapsible=1;childLayout=tableLayout;fixedRows=1;rowLines=0;fontStyle=1;align=center;resizeLast=1;strokeColor=#8006ac;shadow=0;" parent="1" vertex="1">
          <mxGeometry x="60" y="210" width="370" height="190" as="geometry" />
        </mxCell>
        <mxCell id="C-vyLk0tnHw3VtMMgP7b-24" value="" style="shape=partialRectangle;collapsible=0;dropTarget=0;pointerEvents=0;points=[[0,0.5],[1,0.5]];portConstraint=eastwest;top=0;left=0;right=0;bottom=1;strokeColor=#8006ac;shadow=0;" parent="C-vyLk0tnHw3VtMMgP7b-23" vertex="1">
          <mxGeometry y="30" width="370" height="30" as="geometry" />
        </mxCell>
        <mxCell id="C-vyLk0tnHw3VtMMgP7b-25" value="PK" style="shape=partialRectangle;overflow=hidden;connectable=0;top=0;left=0;bottom=0;right=0;fontStyle=1;strokeColor=#8006ac;shadow=0;" parent="C-vyLk0tnHw3VtMMgP7b-24" vertex="1">
          <mxGeometry width="30" height="30" as="geometry">
            <mxRectangle width="30" height="30" as="alternateBounds" />
          </mxGeometry>
        </mxCell>
        <mxCell id="C-vyLk0tnHw3VtMMgP7b-26" value="id BIGINT(20) UNSIGNED NOT NULL AUTO_INCREMENT" style="shape=partialRectangle;overflow=hidden;connectable=0;top=0;left=0;bottom=0;right=0;align=left;spacingLeft=6;fontStyle=5;strokeColor=#8006ac;shadow=0;" parent="C-vyLk0tnHw3VtMMgP7b-24" vertex="1">
          <mxGeometry x="30" width="340" height="30" as="geometry">
            <mxRectangle width="340" height="30" as="alternateBounds" />
          </mxGeometry>
        </mxCell>
        <mxCell id="C-vyLk0tnHw3VtMMgP7b-27" value="" style="shape=partialRectangle;collapsible=0;dropTarget=0;pointerEvents=0;points=[[0,0.5],[1,0.5]];portConstraint=eastwest;top=0;left=0;right=0;bottom=0;strokeColor=#8006ac;shadow=0;" parent="C-vyLk0tnHw3VtMMgP7b-23" vertex="1">
          <mxGeometry y="60" width="370" height="30" as="geometry" />
        </mxCell>
        <mxCell id="C-vyLk0tnHw3VtMMgP7b-28" value="" style="shape=partialRectangle;overflow=hidden;connectable=0;top=0;left=0;bottom=0;right=0;strokeColor=#8006ac;shadow=0;" parent="C-vyLk0tnHw3VtMMgP7b-27" vertex="1">
          <mxGeometry width="30" height="30" as="geometry">
            <mxRectangle width="30" height="30" as="alternateBounds" />
          </mxGeometry>
        </mxCell>
        <mxCell id="C-vyLk0tnHw3VtMMgP7b-29" value="name VARCHAR(50) NOT NULL" style="shape=partialRectangle;overflow=hidden;connectable=0;top=0;left=0;bottom=0;right=0;align=left;spacingLeft=6;strokeColor=#8006ac;shadow=0;" parent="C-vyLk0tnHw3VtMMgP7b-27" vertex="1">
          <mxGeometry x="30" width="340" height="30" as="geometry">
            <mxRectangle width="340" height="30" as="alternateBounds" />
          </mxGeometry>
        </mxCell>
        <mxCell id="Vkbacg9DjLnAmZwQpEmy-1" value="" style="shape=partialRectangle;collapsible=0;dropTarget=0;pointerEvents=0;points=[[0,0.5],[1,0.5]];portConstraint=eastwest;top=0;left=0;right=0;bottom=0;strokeColor=#8006ac;shadow=0;" vertex="1" parent="C-vyLk0tnHw3VtMMgP7b-23">
          <mxGeometry y="90" width="370" height="30" as="geometry" />
        </mxCell>
        <mxCell id="Vkbacg9DjLnAmZwQpEmy-2" value="" style="shape=partialRectangle;overflow=hidden;connectable=0;top=0;left=0;bottom=0;right=0;strokeColor=#8006ac;shadow=0;" vertex="1" parent="Vkbacg9DjLnAmZwQpEmy-1">
          <mxGeometry width="30" height="30" as="geometry">
            <mxRectangle width="30" height="30" as="alternateBounds" />
          </mxGeometry>
        </mxCell>
        <mxCell id="Vkbacg9DjLnAmZwQpEmy-3" value="description VARCHAR(250) NOT NULL" style="shape=partialRectangle;overflow=hidden;connectable=0;top=0;left=0;bottom=0;right=0;align=left;spacingLeft=6;strokeColor=#8006ac;shadow=0;" vertex="1" parent="Vkbacg9DjLnAmZwQpEmy-1">
          <mxGeometry x="30" width="340" height="30" as="geometry">
            <mxRectangle width="340" height="30" as="alternateBounds" />
          </mxGeometry>
        </mxCell>
        <mxCell id="Vkbacg9DjLnAmZwQpEmy-4" value="" style="shape=partialRectangle;collapsible=0;dropTarget=0;pointerEvents=0;points=[[0,0.5],[1,0.5]];portConstraint=eastwest;top=0;left=0;right=0;bottom=0;strokeColor=#8006ac;shadow=0;" vertex="1" parent="C-vyLk0tnHw3VtMMgP7b-23">
          <mxGeometry y="120" width="370" height="30" as="geometry" />
        </mxCell>
        <mxCell id="Vkbacg9DjLnAmZwQpEmy-5" value="" style="shape=partialRectangle;overflow=hidden;connectable=0;top=0;left=0;bottom=0;right=0;strokeColor=#8006ac;shadow=0;" vertex="1" parent="Vkbacg9DjLnAmZwQpEmy-4">
          <mxGeometry width="30" height="30" as="geometry">
            <mxRectangle width="30" height="30" as="alternateBounds" />
          </mxGeometry>
        </mxCell>
        <mxCell id="Vkbacg9DjLnAmZwQpEmy-6" value="price FLOAT NOT NULL" style="shape=partialRectangle;overflow=hidden;connectable=0;top=0;left=0;bottom=0;right=0;align=left;spacingLeft=6;strokeColor=#8006ac;shadow=0;" vertex="1" parent="Vkbacg9DjLnAmZwQpEmy-4">
          <mxGeometry x="30" width="340" height="30" as="geometry">
            <mxRectangle width="340" height="30" as="alternateBounds" />
          </mxGeometry>
        </mxCell>
        <mxCell id="Vkbacg9DjLnAmZwQpEmy-7" value="" style="shape=partialRectangle;collapsible=0;dropTarget=0;pointerEvents=0;points=[[0,0.5],[1,0.5]];portConstraint=eastwest;top=0;left=0;right=0;bottom=0;strokeColor=#8006ac;shadow=0;" vertex="1" parent="C-vyLk0tnHw3VtMMgP7b-23">
          <mxGeometry y="150" width="370" height="30" as="geometry" />
        </mxCell>
        <mxCell id="Vkbacg9DjLnAmZwQpEmy-8" value="" style="shape=partialRectangle;overflow=hidden;connectable=0;top=0;left=0;bottom=0;right=0;strokeColor=#8006ac;shadow=0;" vertex="1" parent="Vkbacg9DjLnAmZwQpEmy-7">
          <mxGeometry width="30" height="30" as="geometry">
            <mxRectangle width="30" height="30" as="alternateBounds" />
          </mxGeometry>
        </mxCell>
        <mxCell id="Vkbacg9DjLnAmZwQpEmy-9" value="category VARCHAR(50) NOT NULL" style="shape=partialRectangle;overflow=hidden;connectable=0;top=0;left=0;bottom=0;right=0;align=left;spacingLeft=6;strokeColor=#8006ac;shadow=0;" vertex="1" parent="Vkbacg9DjLnAmZwQpEmy-7">
          <mxGeometry x="30" width="340" height="30" as="geometry">
            <mxRectangle width="340" height="30" as="alternateBounds" />
          </mxGeometry>
        </mxCell>
        <mxCell id="Vkbacg9DjLnAmZwQpEmy-10" value="customer" style="shape=table;startSize=30;container=1;collapsible=1;childLayout=tableLayout;fixedRows=1;rowLines=0;fontStyle=1;align=center;resizeLast=1;strokeColor=#8006ac;shadow=0;" vertex="1" parent="1">
          <mxGeometry x="60" y="-70" width="370" height="190" as="geometry" />
        </mxCell>
        <mxCell id="Vkbacg9DjLnAmZwQpEmy-11" value="" style="shape=partialRectangle;collapsible=0;dropTarget=0;pointerEvents=0;points=[[0,0.5],[1,0.5]];portConstraint=eastwest;top=0;left=0;right=0;bottom=1;strokeColor=#8006ac;shadow=0;" vertex="1" parent="Vkbacg9DjLnAmZwQpEmy-10">
          <mxGeometry y="30" width="370" height="30" as="geometry" />
        </mxCell>
        <mxCell id="Vkbacg9DjLnAmZwQpEmy-12" value="PK" style="shape=partialRectangle;overflow=hidden;connectable=0;top=0;left=0;bottom=0;right=0;fontStyle=1;strokeColor=#8006ac;shadow=0;" vertex="1" parent="Vkbacg9DjLnAmZwQpEmy-11">
          <mxGeometry width="30" height="30" as="geometry">
            <mxRectangle width="30" height="30" as="alternateBounds" />
          </mxGeometry>
        </mxCell>
        <mxCell id="Vkbacg9DjLnAmZwQpEmy-13" value="id BIGINT(20) UNSIGNED NOT NULL AUTO_INCREMENT" style="shape=partialRectangle;overflow=hidden;connectable=0;top=0;left=0;bottom=0;right=0;align=left;spacingLeft=6;fontStyle=5;strokeColor=#8006ac;shadow=0;" vertex="1" parent="Vkbacg9DjLnAmZwQpEmy-11">
          <mxGeometry x="30" width="340" height="30" as="geometry">
            <mxRectangle width="340" height="30" as="alternateBounds" />
          </mxGeometry>
        </mxCell>
        <mxCell id="Vkbacg9DjLnAmZwQpEmy-14" value="" style="shape=partialRectangle;collapsible=0;dropTarget=0;pointerEvents=0;points=[[0,0.5],[1,0.5]];portConstraint=eastwest;top=0;left=0;right=0;bottom=0;strokeColor=#8006ac;shadow=0;" vertex="1" parent="Vkbacg9DjLnAmZwQpEmy-10">
          <mxGeometry y="60" width="370" height="30" as="geometry" />
        </mxCell>
        <mxCell id="Vkbacg9DjLnAmZwQpEmy-15" value="" style="shape=partialRectangle;overflow=hidden;connectable=0;top=0;left=0;bottom=0;right=0;strokeColor=#8006ac;shadow=0;" vertex="1" parent="Vkbacg9DjLnAmZwQpEmy-14">
          <mxGeometry width="30" height="30" as="geometry">
            <mxRectangle width="30" height="30" as="alternateBounds" />
          </mxGeometry>
        </mxCell>
        <mxCell id="Vkbacg9DjLnAmZwQpEmy-16" value="name VARCHAR(50) NOT NULL" style="shape=partialRectangle;overflow=hidden;connectable=0;top=0;left=0;bottom=0;right=0;align=left;spacingLeft=6;strokeColor=#8006ac;shadow=0;" vertex="1" parent="Vkbacg9DjLnAmZwQpEmy-14">
          <mxGeometry x="30" width="340" height="30" as="geometry">
            <mxRectangle width="340" height="30" as="alternateBounds" />
          </mxGeometry>
        </mxCell>
        <mxCell id="Vkbacg9DjLnAmZwQpEmy-17" value="" style="shape=partialRectangle;collapsible=0;dropTarget=0;pointerEvents=0;points=[[0,0.5],[1,0.5]];portConstraint=eastwest;top=0;left=0;right=0;bottom=0;strokeColor=#8006ac;shadow=0;" vertex="1" parent="Vkbacg9DjLnAmZwQpEmy-10">
          <mxGeometry y="90" width="370" height="30" as="geometry" />
        </mxCell>
        <mxCell id="Vkbacg9DjLnAmZwQpEmy-18" value="" style="shape=partialRectangle;overflow=hidden;connectable=0;top=0;left=0;bottom=0;right=0;strokeColor=#8006ac;shadow=0;" vertex="1" parent="Vkbacg9DjLnAmZwQpEmy-17">
          <mxGeometry width="30" height="30" as="geometry">
            <mxRectangle width="30" height="30" as="alternateBounds" />
          </mxGeometry>
        </mxCell>
        <mxCell id="Vkbacg9DjLnAmZwQpEmy-19" value="address VARCHAR(50) NOT NULL" style="shape=partialRectangle;overflow=hidden;connectable=0;top=0;left=0;bottom=0;right=0;align=left;spacingLeft=6;strokeColor=#8006ac;shadow=0;" vertex="1" parent="Vkbacg9DjLnAmZwQpEmy-17">
          <mxGeometry x="30" width="340" height="30" as="geometry">
            <mxRectangle width="340" height="30" as="alternateBounds" />
          </mxGeometry>
        </mxCell>
        <mxCell id="Vkbacg9DjLnAmZwQpEmy-20" value="" style="shape=partialRectangle;collapsible=0;dropTarget=0;pointerEvents=0;points=[[0,0.5],[1,0.5]];portConstraint=eastwest;top=0;left=0;right=0;bottom=0;strokeColor=#8006ac;shadow=0;" vertex="1" parent="Vkbacg9DjLnAmZwQpEmy-10">
          <mxGeometry y="120" width="370" height="30" as="geometry" />
        </mxCell>
        <mxCell id="Vkbacg9DjLnAmZwQpEmy-21" value="" style="shape=partialRectangle;overflow=hidden;connectable=0;top=0;left=0;bottom=0;right=0;strokeColor=#8006ac;shadow=0;" vertex="1" parent="Vkbacg9DjLnAmZwQpEmy-20">
          <mxGeometry width="30" height="30" as="geometry">
            <mxRectangle width="30" height="30" as="alternateBounds" />
          </mxGeometry>
        </mxCell>
        <mxCell id="Vkbacg9DjLnAmZwQpEmy-22" value="email VARCHAR(50) NOT NULL" style="shape=partialRectangle;overflow=hidden;connectable=0;top=0;left=0;bottom=0;right=0;align=left;spacingLeft=6;strokeColor=#8006ac;shadow=0;" vertex="1" parent="Vkbacg9DjLnAmZwQpEmy-20">
          <mxGeometry x="30" width="340" height="30" as="geometry">
            <mxRectangle width="340" height="30" as="alternateBounds" />
          </mxGeometry>
        </mxCell>
        <mxCell id="Vkbacg9DjLnAmZwQpEmy-23" value="" style="shape=partialRectangle;collapsible=0;dropTarget=0;pointerEvents=0;points=[[0,0.5],[1,0.5]];portConstraint=eastwest;top=0;left=0;right=0;bottom=0;strokeColor=#8006ac;shadow=0;" vertex="1" parent="Vkbacg9DjLnAmZwQpEmy-10">
          <mxGeometry y="150" width="370" height="30" as="geometry" />
        </mxCell>
        <mxCell id="Vkbacg9DjLnAmZwQpEmy-24" value="" style="shape=partialRectangle;overflow=hidden;connectable=0;top=0;left=0;bottom=0;right=0;strokeColor=#8006ac;shadow=0;" vertex="1" parent="Vkbacg9DjLnAmZwQpEmy-23">
          <mxGeometry width="30" height="30" as="geometry">
            <mxRectangle width="30" height="30" as="alternateBounds" />
          </mxGeometry>
        </mxCell>
        <mxCell id="Vkbacg9DjLnAmZwQpEmy-25" value="phone VARCHAR(50) NOT NULL" style="shape=partialRectangle;overflow=hidden;connectable=0;top=0;left=0;bottom=0;right=0;align=left;spacingLeft=6;strokeColor=#8006ac;shadow=0;" vertex="1" parent="Vkbacg9DjLnAmZwQpEmy-23">
          <mxGeometry x="30" width="340" height="30" as="geometry">
            <mxRectangle width="340" height="30" as="alternateBounds" />
          </mxGeometry>
        </mxCell>
        <mxCell id="Vkbacg9DjLnAmZwQpEmy-26" value="salesman" style="shape=table;startSize=30;container=1;collapsible=1;childLayout=tableLayout;fixedRows=1;rowLines=0;fontStyle=1;align=center;resizeLast=1;strokeColor=#8006ac;shadow=0;" vertex="1" parent="1">
          <mxGeometry x="630" y="-150" width="370" height="130" as="geometry" />
        </mxCell>
        <mxCell id="Vkbacg9DjLnAmZwQpEmy-27" value="" style="shape=partialRectangle;collapsible=0;dropTarget=0;pointerEvents=0;points=[[0,0.5],[1,0.5]];portConstraint=eastwest;top=0;left=0;right=0;bottom=1;strokeColor=#8006ac;shadow=0;" vertex="1" parent="Vkbacg9DjLnAmZwQpEmy-26">
          <mxGeometry y="30" width="370" height="30" as="geometry" />
        </mxCell>
        <mxCell id="Vkbacg9DjLnAmZwQpEmy-28" value="PK" style="shape=partialRectangle;overflow=hidden;connectable=0;top=0;left=0;bottom=0;right=0;fontStyle=1;strokeColor=#8006ac;shadow=0;" vertex="1" parent="Vkbacg9DjLnAmZwQpEmy-27">
          <mxGeometry width="30" height="30" as="geometry">
            <mxRectangle width="30" height="30" as="alternateBounds" />
          </mxGeometry>
        </mxCell>
        <mxCell id="Vkbacg9DjLnAmZwQpEmy-29" value="id BIGINT(20) UNSIGNED NOT NULL AUTO_INCREMENT" style="shape=partialRectangle;overflow=hidden;connectable=0;top=0;left=0;bottom=0;right=0;align=left;spacingLeft=6;fontStyle=5;strokeColor=#8006ac;shadow=0;" vertex="1" parent="Vkbacg9DjLnAmZwQpEmy-27">
          <mxGeometry x="30" width="340" height="30" as="geometry">
            <mxRectangle width="340" height="30" as="alternateBounds" />
          </mxGeometry>
        </mxCell>
        <mxCell id="Vkbacg9DjLnAmZwQpEmy-30" value="" style="shape=partialRectangle;collapsible=0;dropTarget=0;pointerEvents=0;points=[[0,0.5],[1,0.5]];portConstraint=eastwest;top=0;left=0;right=0;bottom=0;strokeColor=#8006ac;shadow=0;" vertex="1" parent="Vkbacg9DjLnAmZwQpEmy-26">
          <mxGeometry y="60" width="370" height="30" as="geometry" />
        </mxCell>
        <mxCell id="Vkbacg9DjLnAmZwQpEmy-31" value="" style="shape=partialRectangle;overflow=hidden;connectable=0;top=0;left=0;bottom=0;right=0;strokeColor=#8006ac;shadow=0;" vertex="1" parent="Vkbacg9DjLnAmZwQpEmy-30">
          <mxGeometry width="30" height="30" as="geometry">
            <mxRectangle width="30" height="30" as="alternateBounds" />
          </mxGeometry>
        </mxCell>
        <mxCell id="Vkbacg9DjLnAmZwQpEmy-32" value="name VARCHAR(50) NOT NULL" style="shape=partialRectangle;overflow=hidden;connectable=0;top=0;left=0;bottom=0;right=0;align=left;spacingLeft=6;strokeColor=#8006ac;shadow=0;" vertex="1" parent="Vkbacg9DjLnAmZwQpEmy-30">
          <mxGeometry x="30" width="340" height="30" as="geometry">
            <mxRectangle width="340" height="30" as="alternateBounds" />
          </mxGeometry>
        </mxCell>
        <mxCell id="Vkbacg9DjLnAmZwQpEmy-33" value="" style="shape=partialRectangle;collapsible=0;dropTarget=0;pointerEvents=0;points=[[0,0.5],[1,0.5]];portConstraint=eastwest;top=0;left=0;right=0;bottom=0;strokeColor=#8006ac;shadow=0;" vertex="1" parent="Vkbacg9DjLnAmZwQpEmy-26">
          <mxGeometry y="90" width="370" height="30" as="geometry" />
        </mxCell>
        <mxCell id="Vkbacg9DjLnAmZwQpEmy-34" value="" style="shape=partialRectangle;overflow=hidden;connectable=0;top=0;left=0;bottom=0;right=0;strokeColor=#8006ac;shadow=0;" vertex="1" parent="Vkbacg9DjLnAmZwQpEmy-33">
          <mxGeometry width="30" height="30" as="geometry">
            <mxRectangle width="30" height="30" as="alternateBounds" />
          </mxGeometry>
        </mxCell>
        <mxCell id="Vkbacg9DjLnAmZwQpEmy-35" value="department VARCHAR(50) NOT NULL" style="shape=partialRectangle;overflow=hidden;connectable=0;top=0;left=0;bottom=0;right=0;align=left;spacingLeft=6;strokeColor=#8006ac;shadow=0;" vertex="1" parent="Vkbacg9DjLnAmZwQpEmy-33">
          <mxGeometry x="30" width="340" height="30" as="geometry">
            <mxRectangle width="340" height="30" as="alternateBounds" />
          </mxGeometry>
        </mxCell>
        <mxCell id="Vkbacg9DjLnAmZwQpEmy-43" value="sales" style="shape=table;startSize=30;container=1;collapsible=1;childLayout=tableLayout;fixedRows=1;rowLines=0;fontStyle=1;align=center;resizeLast=1;strokeColor=#8006ac;shadow=0;" vertex="1" parent="1">
          <mxGeometry x="630" y="60" width="370" height="160" as="geometry" />
        </mxCell>
        <mxCell id="Vkbacg9DjLnAmZwQpEmy-44" value="" style="shape=partialRectangle;collapsible=0;dropTarget=0;pointerEvents=0;points=[[0,0.5],[1,0.5]];portConstraint=eastwest;top=0;left=0;right=0;bottom=1;strokeColor=#8006ac;shadow=0;" vertex="1" parent="Vkbacg9DjLnAmZwQpEmy-43">
          <mxGeometry y="30" width="370" height="30" as="geometry" />
        </mxCell>
        <mxCell id="Vkbacg9DjLnAmZwQpEmy-45" value="PK" style="shape=partialRectangle;overflow=hidden;connectable=0;top=0;left=0;bottom=0;right=0;fontStyle=1;strokeColor=#8006ac;shadow=0;" vertex="1" parent="Vkbacg9DjLnAmZwQpEmy-44">
          <mxGeometry width="30" height="30" as="geometry">
            <mxRectangle width="30" height="30" as="alternateBounds" />
          </mxGeometry>
        </mxCell>
        <mxCell id="Vkbacg9DjLnAmZwQpEmy-46" value="id BIGINT(20) UNSIGNED NOT NULL AUTO_INCREMENT" style="shape=partialRectangle;overflow=hidden;connectable=0;top=0;left=0;bottom=0;right=0;align=left;spacingLeft=6;fontStyle=5;strokeColor=#8006ac;shadow=0;" vertex="1" parent="Vkbacg9DjLnAmZwQpEmy-44">
          <mxGeometry x="30" width="340" height="30" as="geometry">
            <mxRectangle width="340" height="30" as="alternateBounds" />
          </mxGeometry>
        </mxCell>
        <mxCell id="Vkbacg9DjLnAmZwQpEmy-47" value="" style="shape=partialRectangle;collapsible=0;dropTarget=0;pointerEvents=0;points=[[0,0.5],[1,0.5]];portConstraint=eastwest;top=0;left=0;right=0;bottom=0;strokeColor=#8006ac;shadow=0;" vertex="1" parent="Vkbacg9DjLnAmZwQpEmy-43">
          <mxGeometry y="60" width="370" height="30" as="geometry" />
        </mxCell>
        <mxCell id="Vkbacg9DjLnAmZwQpEmy-48" value="" style="shape=partialRectangle;overflow=hidden;connectable=0;top=0;left=0;bottom=0;right=0;strokeColor=#8006ac;shadow=0;" vertex="1" parent="Vkbacg9DjLnAmZwQpEmy-47">
          <mxGeometry width="30" height="30" as="geometry">
            <mxRectangle width="30" height="30" as="alternateBounds" />
          </mxGeometry>
        </mxCell>
        <mxCell id="Vkbacg9DjLnAmZwQpEmy-49" value="date DATE NOT NULL" style="shape=partialRectangle;overflow=hidden;connectable=0;top=0;left=0;bottom=0;right=0;align=left;spacingLeft=6;strokeColor=#8006ac;shadow=0;" vertex="1" parent="Vkbacg9DjLnAmZwQpEmy-47">
          <mxGeometry x="30" width="340" height="30" as="geometry">
            <mxRectangle width="340" height="30" as="alternateBounds" />
          </mxGeometry>
        </mxCell>
        <mxCell id="Vkbacg9DjLnAmZwQpEmy-50" value="" style="shape=partialRectangle;collapsible=0;dropTarget=0;pointerEvents=0;points=[[0,0.5],[1,0.5]];portConstraint=eastwest;top=0;left=0;right=0;bottom=0;strokeColor=#8006ac;shadow=0;" vertex="1" parent="Vkbacg9DjLnAmZwQpEmy-43">
          <mxGeometry y="90" width="370" height="30" as="geometry" />
        </mxCell>
        <mxCell id="Vkbacg9DjLnAmZwQpEmy-51" value="FK" style="shape=partialRectangle;overflow=hidden;connectable=0;top=0;left=0;bottom=0;right=0;fontStyle=1;strokeColor=#8006ac;shadow=0;" vertex="1" parent="Vkbacg9DjLnAmZwQpEmy-50">
          <mxGeometry width="30" height="30" as="geometry">
            <mxRectangle width="30" height="30" as="alternateBounds" />
          </mxGeometry>
        </mxCell>
        <mxCell id="Vkbacg9DjLnAmZwQpEmy-52" value="id_customer BIGINT(20) UNSIGNED NOT NULL" style="shape=partialRectangle;overflow=hidden;connectable=0;top=0;left=0;bottom=0;right=0;align=left;spacingLeft=6;strokeColor=#8006ac;shadow=0;" vertex="1" parent="Vkbacg9DjLnAmZwQpEmy-50">
          <mxGeometry x="30" width="340" height="30" as="geometry">
            <mxRectangle width="340" height="30" as="alternateBounds" />
          </mxGeometry>
        </mxCell>
        <mxCell id="Vkbacg9DjLnAmZwQpEmy-53" value="" style="shape=partialRectangle;collapsible=0;dropTarget=0;pointerEvents=0;points=[[0,0.5],[1,0.5]];portConstraint=eastwest;top=0;left=0;right=0;bottom=0;strokeColor=#8006ac;shadow=0;" vertex="1" parent="Vkbacg9DjLnAmZwQpEmy-43">
          <mxGeometry y="120" width="370" height="30" as="geometry" />
        </mxCell>
        <mxCell id="Vkbacg9DjLnAmZwQpEmy-54" value="FK" style="shape=partialRectangle;overflow=hidden;connectable=0;top=0;left=0;bottom=0;right=0;fontStyle=1;strokeColor=#8006ac;shadow=0;" vertex="1" parent="Vkbacg9DjLnAmZwQpEmy-53">
          <mxGeometry width="30" height="30" as="geometry">
            <mxRectangle width="30" height="30" as="alternateBounds" />
          </mxGeometry>
        </mxCell>
        <mxCell id="Vkbacg9DjLnAmZwQpEmy-55" value="id_salesman BIGINT(20) UNSIGNED NOT NULL" style="shape=partialRectangle;overflow=hidden;connectable=0;top=0;left=0;bottom=0;right=0;align=left;spacingLeft=6;strokeColor=#8006ac;shadow=0;" vertex="1" parent="Vkbacg9DjLnAmZwQpEmy-53">
          <mxGeometry x="30" width="340" height="30" as="geometry">
            <mxRectangle width="340" height="30" as="alternateBounds" />
          </mxGeometry>
        </mxCell>
        <mxCell id="Vkbacg9DjLnAmZwQpEmy-60" value="sales_detail" style="shape=table;startSize=30;container=1;collapsible=1;childLayout=tableLayout;fixedRows=1;rowLines=0;fontStyle=1;align=center;resizeLast=1;strokeColor=#8006ac;shadow=0;" vertex="1" parent="1">
          <mxGeometry x="630" y="310" width="370" height="190" as="geometry" />
        </mxCell>
        <mxCell id="Vkbacg9DjLnAmZwQpEmy-61" value="" style="shape=partialRectangle;collapsible=0;dropTarget=0;pointerEvents=0;points=[[0,0.5],[1,0.5]];portConstraint=eastwest;top=0;left=0;right=0;bottom=1;strokeColor=#8006ac;shadow=0;" vertex="1" parent="Vkbacg9DjLnAmZwQpEmy-60">
          <mxGeometry y="30" width="370" height="30" as="geometry" />
        </mxCell>
        <mxCell id="Vkbacg9DjLnAmZwQpEmy-62" value="PK" style="shape=partialRectangle;overflow=hidden;connectable=0;top=0;left=0;bottom=0;right=0;fontStyle=1;strokeColor=#8006ac;shadow=0;" vertex="1" parent="Vkbacg9DjLnAmZwQpEmy-61">
          <mxGeometry width="30" height="30" as="geometry">
            <mxRectangle width="30" height="30" as="alternateBounds" />
          </mxGeometry>
        </mxCell>
        <mxCell id="Vkbacg9DjLnAmZwQpEmy-63" value="id BIGINT(20) UNSIGNED NOT NULL AUTO_INCREMENT" style="shape=partialRectangle;overflow=hidden;connectable=0;top=0;left=0;bottom=0;right=0;align=left;spacingLeft=6;fontStyle=5;strokeColor=#8006ac;shadow=0;" vertex="1" parent="Vkbacg9DjLnAmZwQpEmy-61">
          <mxGeometry x="30" width="340" height="30" as="geometry">
            <mxRectangle width="340" height="30" as="alternateBounds" />
          </mxGeometry>
        </mxCell>
        <mxCell id="Vkbacg9DjLnAmZwQpEmy-64" value="" style="shape=partialRectangle;collapsible=0;dropTarget=0;pointerEvents=0;points=[[0,0.5],[1,0.5]];portConstraint=eastwest;top=0;left=0;right=0;bottom=0;strokeColor=#8006ac;shadow=0;" vertex="1" parent="Vkbacg9DjLnAmZwQpEmy-60">
          <mxGeometry y="60" width="370" height="30" as="geometry" />
        </mxCell>
        <mxCell id="Vkbacg9DjLnAmZwQpEmy-65" value="FK" style="shape=partialRectangle;overflow=hidden;connectable=0;top=0;left=0;bottom=0;right=0;fontStyle=1;strokeColor=#8006ac;shadow=0;" vertex="1" parent="Vkbacg9DjLnAmZwQpEmy-64">
          <mxGeometry width="30" height="30" as="geometry">
            <mxRectangle width="30" height="30" as="alternateBounds" />
          </mxGeometry>
        </mxCell>
        <mxCell id="Vkbacg9DjLnAmZwQpEmy-66" value="id_sales BIGINT(20) UNSIGNED NOT NULL" style="shape=partialRectangle;overflow=hidden;connectable=0;top=0;left=0;bottom=0;right=0;align=left;spacingLeft=6;strokeColor=#8006ac;shadow=0;" vertex="1" parent="Vkbacg9DjLnAmZwQpEmy-64">
          <mxGeometry x="30" width="340" height="30" as="geometry">
            <mxRectangle width="340" height="30" as="alternateBounds" />
          </mxGeometry>
        </mxCell>
        <mxCell id="Vkbacg9DjLnAmZwQpEmy-67" value="" style="shape=partialRectangle;collapsible=0;dropTarget=0;pointerEvents=0;points=[[0,0.5],[1,0.5]];portConstraint=eastwest;top=0;left=0;right=0;bottom=0;strokeColor=#8006ac;shadow=0;" vertex="1" parent="Vkbacg9DjLnAmZwQpEmy-60">
          <mxGeometry y="90" width="370" height="30" as="geometry" />
        </mxCell>
        <mxCell id="Vkbacg9DjLnAmZwQpEmy-68" value="FK" style="shape=partialRectangle;overflow=hidden;connectable=0;top=0;left=0;bottom=0;right=0;fontStyle=1;strokeColor=#8006ac;shadow=0;" vertex="1" parent="Vkbacg9DjLnAmZwQpEmy-67">
          <mxGeometry width="30" height="30" as="geometry">
            <mxRectangle width="30" height="30" as="alternateBounds" />
          </mxGeometry>
        </mxCell>
        <mxCell id="Vkbacg9DjLnAmZwQpEmy-69" value="id_product BIGINT(20) UNSIGNED NOT NULL" style="shape=partialRectangle;overflow=hidden;connectable=0;top=0;left=0;bottom=0;right=0;align=left;spacingLeft=6;strokeColor=#8006ac;shadow=0;" vertex="1" parent="Vkbacg9DjLnAmZwQpEmy-67">
          <mxGeometry x="30" width="340" height="30" as="geometry">
            <mxRectangle width="340" height="30" as="alternateBounds" />
          </mxGeometry>
        </mxCell>
        <mxCell id="Vkbacg9DjLnAmZwQpEmy-70" value="" style="shape=partialRectangle;collapsible=0;dropTarget=0;pointerEvents=0;points=[[0,0.5],[1,0.5]];portConstraint=eastwest;top=0;left=0;right=0;bottom=0;strokeColor=#8006ac;shadow=0;" vertex="1" parent="Vkbacg9DjLnAmZwQpEmy-60">
          <mxGeometry y="120" width="370" height="30" as="geometry" />
        </mxCell>
        <mxCell id="Vkbacg9DjLnAmZwQpEmy-71" value="" style="shape=partialRectangle;overflow=hidden;connectable=0;top=0;left=0;bottom=0;right=0;strokeColor=#8006ac;shadow=0;" vertex="1" parent="Vkbacg9DjLnAmZwQpEmy-70">
          <mxGeometry width="30" height="30" as="geometry">
            <mxRectangle width="30" height="30" as="alternateBounds" />
          </mxGeometry>
        </mxCell>
        <mxCell id="Vkbacg9DjLnAmZwQpEmy-72" value="quantity INT NOT NULL" style="shape=partialRectangle;overflow=hidden;connectable=0;top=0;left=0;bottom=0;right=0;align=left;spacingLeft=6;strokeColor=#8006ac;shadow=0;" vertex="1" parent="Vkbacg9DjLnAmZwQpEmy-70">
          <mxGeometry x="30" width="340" height="30" as="geometry">
            <mxRectangle width="340" height="30" as="alternateBounds" />
          </mxGeometry>
        </mxCell>
        <mxCell id="Vkbacg9DjLnAmZwQpEmy-73" value="" style="shape=partialRectangle;collapsible=0;dropTarget=0;pointerEvents=0;points=[[0,0.5],[1,0.5]];portConstraint=eastwest;top=0;left=0;right=0;bottom=0;strokeColor=#8006ac;shadow=0;" vertex="1" parent="Vkbacg9DjLnAmZwQpEmy-60">
          <mxGeometry y="150" width="370" height="30" as="geometry" />
        </mxCell>
        <mxCell id="Vkbacg9DjLnAmZwQpEmy-74" value="" style="shape=partialRectangle;overflow=hidden;connectable=0;top=0;left=0;bottom=0;right=0;strokeColor=#8006ac;shadow=0;" vertex="1" parent="Vkbacg9DjLnAmZwQpEmy-73">
          <mxGeometry width="30" height="30" as="geometry">
            <mxRectangle width="30" height="30" as="alternateBounds" />
          </mxGeometry>
        </mxCell>
        <mxCell id="Vkbacg9DjLnAmZwQpEmy-75" value="unit_price FLOAT NOT NULL" style="shape=partialRectangle;overflow=hidden;connectable=0;top=0;left=0;bottom=0;right=0;align=left;spacingLeft=6;strokeColor=#8006ac;shadow=0;" vertex="1" parent="Vkbacg9DjLnAmZwQpEmy-73">
          <mxGeometry x="30" width="340" height="30" as="geometry">
            <mxRectangle width="340" height="30" as="alternateBounds" />
          </mxGeometry>
        </mxCell>
        <mxCell id="C-vyLk0tnHw3VtMMgP7b-1" value="" style="edgeStyle=entityRelationEdgeStyle;endArrow=ERzeroToMany;startArrow=ERone;endFill=1;startFill=0;exitX=1;exitY=0.5;exitDx=0;exitDy=0;strokeColor=#8006ac;shadow=0;entryX=1;entryY=0.5;entryDx=0;entryDy=0;" parent="1" source="Vkbacg9DjLnAmZwQpEmy-30" target="Vkbacg9DjLnAmZwQpEmy-47" edge="1">
          <mxGeometry width="100" height="100" relative="1" as="geometry">
            <mxPoint x="1010" y="140" as="sourcePoint" />
            <mxPoint x="1110" y="-60" as="targetPoint" />
          </mxGeometry>
        </mxCell>
        <mxCell id="Vkbacg9DjLnAmZwQpEmy-76" value="" style="edgeStyle=entityRelationEdgeStyle;endArrow=ERzeroToMany;startArrow=ERone;endFill=1;startFill=0;entryX=1;entryY=0.5;entryDx=0;entryDy=0;exitX=1;exitY=0.5;exitDx=0;exitDy=0;strokeColor=#8006ac;shadow=0;" edge="1" parent="1" source="Vkbacg9DjLnAmZwQpEmy-50" target="Vkbacg9DjLnAmZwQpEmy-61">
          <mxGeometry width="100" height="100" relative="1" as="geometry">
            <mxPoint x="1010" y="145" as="sourcePoint" />
            <mxPoint x="1010" y="-65" as="targetPoint" />
          </mxGeometry>
        </mxCell>
        <mxCell id="Vkbacg9DjLnAmZwQpEmy-77" value="" style="edgeStyle=entityRelationEdgeStyle;endArrow=ERzeroToMany;startArrow=ERone;endFill=1;startFill=0;entryX=0;entryY=0.5;entryDx=0;entryDy=0;exitX=1;exitY=-0.054;exitDx=0;exitDy=0;exitPerimeter=0;strokeColor=#8006ac;shadow=0;" edge="1" parent="1" source="Vkbacg9DjLnAmZwQpEmy-17" target="Vkbacg9DjLnAmZwQpEmy-47">
          <mxGeometry width="100" height="100" relative="1" as="geometry">
            <mxPoint x="550" y="280" as="sourcePoint" />
            <mxPoint x="550" y="70" as="targetPoint" />
          </mxGeometry>
        </mxCell>
        <mxCell id="Vkbacg9DjLnAmZwQpEmy-78" value="" style="edgeStyle=entityRelationEdgeStyle;endArrow=ERzeroToMany;startArrow=ERone;endFill=1;startFill=0;entryX=0.002;entryY=-0.049;entryDx=0;entryDy=0;exitX=1;exitY=0.5;exitDx=0;exitDy=0;entryPerimeter=0;strokeColor=#8006ac;shadow=0;" edge="1" parent="1" source="Vkbacg9DjLnAmZwQpEmy-1" target="Vkbacg9DjLnAmZwQpEmy-67">
          <mxGeometry width="100" height="100" relative="1" as="geometry">
            <mxPoint x="1190" y="390" as="sourcePoint" />
            <mxPoint x="1190" y="180" as="targetPoint" />
          </mxGeometry>
        </mxCell>
      </root>
    </mxGraphModel>
  </diagram>
</mxfile>
